<?xml version="1.0" encoding="UTF-8"?>
<svg width="680px" height="250px" viewBox="0 0 680 250" version="1.1" xmlns="http://www.w3.org/2000/svg" xmlns:xlink="http://www.w3.org/1999/xlink">
    <!-- Generator: sketchtool 46.2 (44496) - http://www.bohemiancoding.com/sketch -->
    <title>prettier-wide-light</title>
    <desc>Created with sketchtool.</desc>
    <defs></defs>
    <g id="key" stroke="none" stroke-width="1" fill="none" fill-rule="evenodd">
        <g id="prettier-wide-light">
            <g id="Wide-logo-(Light)">
                <g id="line-13" transform="translate(90.000000, 240.000000)" fill="#C6CBD0" opacity="0.5">
                    <rect id="line-13-path-4" fill-rule="nonzero" x="310" y="0" width="60" height="10" rx="5"></rect>
                    <rect id="line-13-path-3" fill-rule="nonzero" x="210" y="0" width="90" height="10" rx="5"></rect>
                    <rect id="line-13-path-2" fill-rule="nonzero" x="80" y="0" width="120" height="10" rx="5"></rect>
                    <rect id="line-13-path-1" fill-rule="nonzero" x="0" y="0" width="70" height="10" rx="5"></rect>
                </g>
                <g id="line-12" transform="translate(60.000000, 220.000000)">
                    <rect id="line-12-path-6" fill="#C6CBD0" fill-rule="nonzero" opacity="0.5" x="420" y="0" width="40" height="10" rx="5"></rect>
                    <rect id="line-12-path-5" fill="#C6CBD0" fill-rule="nonzero" opacity="0.5" x="280" y="0" width="130" height="10" rx="5"></rect>
                    <rect id="line-12-path-4" fill="#EA5E5E" fill-rule="nonzero" x="200" y="0" width="70" height="10" rx="5"></rect>
                    <rect id="line-12-path-3" fill="#C6CBD0" fill-rule="nonzero" opacity="0.5" x="160" y="0" width="30" height="10" rx="5"></rect>
                    <rect id="line-12-path-2" fill="#C6CBD0" fill-rule="nonzero" opacity="0.5" x="100" y="0" width="50" height="10" rx="5"></rect>
                    <rect id="line-12-path-1" fill="#C6CBD0" fill-rule="nonzero" opacity="0.5" x="-1.42108547e-14" y="0" width="90" height="10" rx="5"></rect>
                </g>
                <g id="line-11" transform="translate(110.000000, 200.000000)">
                    <rect id="line-11-path-5" fill="#C6CBD0" fill-rule="nonzero" opacity="0.5" x="300" y="0" width="120" height="10" rx="5"></rect>
                    <rect id="line-11-path-4" fill="#C6CBD0" fill-rule="nonzero" opacity="0.5" x="230" y="0" width="60" height="10" rx="5"></rect>
                    <rect id="line-11-path-3" fill="#FBBF47" fill-rule="nonzero" x="190" y="0" width="30" height="10" rx="5"></rect>
                    <rect id="line-11-path-2" fill="#56B3B4" fill-rule="nonzero" x="150" y="0" width="30" height="10" rx="5"></rect>
                    <rect id="line-11-path-1" fill="#C6CBD0" fill-rule="nonzero" opacity="0.5" x="0" y="0" width="140" height="10" rx="5"></rect>
                </g>
                <g id="line-10" transform="translate(65.000000, 180.000000)">
                    <rect id="line-10-path-6" fill="#C6CBD0" fill-rule="nonzero" opacity="0.5" x="375" y="0" width="150" height="10" rx="5"></rect>
                    <rect id="line-10-path-5" fill="#C6CBD0" fill-rule="nonzero" opacity="0.5" x="275" y="0" width="90" height="10" rx="5"></rect>
                    <rect id="line-10-path-4" fill="#C6CBD0" fill-rule="nonzero" opacity="0.5" x="125" y="0" width="60" height="10" rx="5"></rect>
                    <rect id="line-10-path-3" fill="#C693C6" fill-rule="nonzero" x="195" y="0" width="70" height="10" rx="5"></rect>
                    <rect id="line-10-path-2" fill="#C6CBD0" fill-rule="nonzero" opacity="0.5" x="95" y="0" width="20" height="10" rx="5"></rect>
                    <rect id="line-10-path-1" fill="#C6CBD0" fill-rule="nonzero" opacity="0.5" x="-1.42108547e-14" y="0" width="85" height="10" rx="5"></rect>
                </g>
                <g id="line-9" transform="translate(80.000000, 160.000000)">
                    <rect id="line-9-path-7" fill="#C6CBD0" fill-rule="nonzero" opacity="0.5" x="500" y="0" width="40" height="10" rx="5"></rect>
                    <rect id="line-9-path-6" fill="#C6CBD0" fill-rule="nonzero" opacity="0.5" x="400" y="0" width="90" height="10" rx="5"></rect>
                    <rect id="line-9-path-5" fill="#C6CBD0" fill-rule="nonzero" opacity="0.5" x="320" y="0" width="70" height="10" rx="5"></rect>
                    <rect id="line-9-path-4" fill="#FBBF47" fill-rule="nonzero" x="210" y="0" width="100" height="10" rx="5"></rect>
                    <rect id="line-9-path-3" fill="#C693C6" fill-rule="nonzero" x="180" y="0" width="20" height="10" rx="5"></rect>
                    <rect id="line-9-path-2" fill="#C6CBD0" fill-rule="nonzero" opacity="0.5" x="60" y="0" width="110" height="10" rx="5"></rect>
                    <rect id="line-9-path-1" fill="#C6CBD0" fill-rule="nonzero" opacity="0.5" x="0" y="0" width="50" height="10" rx="5"></rect>
                </g>
                <g id="line-8" transform="translate(30.000000, 140.000000)">
                    <rect id="line-8-path-8" fill="#C6CBD0" fill-rule="nonzero" opacity="0.5" x="480" y="0" width="130" height="10" rx="5"></rect>
                    <rect id="line-8-path-7" fill="#C6CBD0" fill-rule="nonzero" opacity="0.5" x="400" y="0" width="70" height="10" rx="5"></rect>
                    <rect id="line-8-path-6" fill="#C693C6" fill-rule="nonzero" x="350" y="0" width="40" height="10" rx="5"></rect>
                    <rect id="line-8-path-5" fill="#EA5E5E" fill-rule="nonzero" x="290" y="0" width="50" height="10" rx="5"></rect>
                    <rect id="line-8-path-4" fill="#56B3B4" fill-rule="nonzero" x="230" y="0" width="50" height="10" rx="5"></rect>
                    <rect id="line-8-path-3" fill="#C6CBD0" fill-rule="nonzero" opacity="0.5" x="170" y="0" width="50" height="10" rx="5"></rect>
                    <rect id="line-8-path-2" fill="#C6CBD0" fill-rule="nonzero" opacity="0.5" x="70" y="0" width="90" height="10" rx="5"></rect>
                    <rect id="line-8-path-1" fill="#C6CBD0" fill-rule="nonzero" opacity="0.5" x="0" y="0" width="60" height="10" rx="5"></rect>
                </g>
                <g id="line-7" transform="translate(20.000000, 120.000000)">
                    <rect id="line-7-path-9" fill="#C6CBD0" fill-rule="nonzero" opacity="0.5" x="570" y="0" width="70" height="10" rx="5"></rect>
                    <rect id="line-7-path-8" fill="#C6CBD0" fill-rule="nonzero" opacity="0.5" x="540" y="0" width="20" height="10" rx="5"></rect>
                    <rect id="line-7-path-7" fill="#C6CBD0" fill-rule="nonzero" opacity="0.5" x="420" y="0" width="110" height="10" rx="5"></rect>
                    <rect id="line-7-path-6" fill="#56B3B4" fill-rule="nonzero" x="320" y="0" width="90" height="10" rx="5"></rect>
                    <rect id="line-7-path-5" fill="#FBBF47" fill-rule="nonzero" x="270" y="0" width="40" height="10" rx="5"></rect>
                    <rect id="line-7-path-4" fill="#EA5E5E" fill-rule="nonzero" x="240" y="0" width="20" height="10" rx="5"></rect>
                    <rect id="line-7-path-3" fill="#C6CBD0" fill-rule="nonzero" opacity="0.5" x="200" y="0" width="30" height="10" rx="5"></rect>
                    <rect id="line-7-path-2" fill="#C6CBD0" fill-rule="nonzero" opacity="0.5" x="100" y="0" width="90" height="10" rx="5"></rect>
                    <rect id="line-7-path-1" fill="#C6CBD0" fill-rule="nonzero" opacity="0.5" x="0" y="0" width="90" height="10" rx="5"></rect>
                </g>
                <g id="line-6" transform="translate(0.000000, 100.000000)">
                    <rect id="line-6-path-6" fill="#C6CBD0" fill-rule="nonzero" opacity="0.5" x="450" y="0" width="150" height="10" rx="5"></rect>
                    <rect id="line-6-path-5" fill="#FBBF47" fill-rule="nonzero" x="380" y="0" width="60" height="10" rx="5"></rect>
                    <rect id="line-6-path-4" fill="#C6CBD0" fill-rule="nonzero" opacity="0.5" x="320" y="0" width="50" height="10" rx="5"></rect>
                    <rect id="line-6-path-3" fill="#C693C6" fill-rule="nonzero" x="260" y="0" width="50" height="10" rx="5"></rect>
                    <rect id="line-6-path-2" fill="#C6CBD0" fill-rule="nonzero" opacity="0.5" x="140" y="0" width="110" height="10" rx="5"></rect>
                    <rect id="line-6-path-1" fill="#C6CBD0" fill-rule="nonzero" opacity="0.5" x="0" y="0" width="130" height="10" rx="5"></rect>
                </g>
                <g id="line-5" transform="translate(10.000000, 80.000000)">
                    <rect id="line-5-path-9" fill="#C6CBD0" fill-rule="nonzero" opacity="0.5" x="470" y="0" width="200" height="10" rx="5"></rect>
                    <rect id="line-5-path-8" fill="#C6CBD0" fill-rule="nonzero" opacity="0.5" x="440" y="0" width="20" height="10" rx="5"></rect>
                    <rect id="line-5-path-7" fill="#EA5E5E" fill-rule="nonzero" x="370" y="0" width="60" height="10" rx="5"></rect>
                    <rect id="line-5-path-6" fill="#C6CBD0" fill-rule="nonzero" opacity="0.5" x="310" y="0" width="50" height="10" rx="5"></rect>
                    <rect id="line-5-path-5" fill="#FBBF47" fill-rule="nonzero" x="250" y="0" width="50" height="10" rx="5"></rect>
                    <rect id="line-5-path-4" fill="#C6CBD0" fill-rule="nonzero" opacity="0.5" x="220" y="0" width="20" height="10" rx="5"></rect>
                    <rect id="line-5-path-3" fill="#C6CBD0" fill-rule="nonzero" opacity="0.5" x="150" y="0" width="60" height="10" rx="5"></rect>
                    <rect id="line-5-path-2" fill="#C6CBD0" fill-rule="nonzero" opacity="0.5" x="100" y="0" width="40" height="10" rx="5"></rect>
                    <rect id="line-5-path-1" fill="#C6CBD0" fill-rule="nonzero" opacity="0.5" x="0" y="0" width="90" height="10" rx="5"></rect>
                </g>
                <g id="line-4" transform="translate(30.000000, 60.000000)">
                    <rect id="line-4-path-8" fill="#C6CBD0" fill-rule="nonzero" opacity="0.5" x="510" y="0" width="90" height="10" rx="5"></rect>
                    <rect id="line-4-path-7" fill="#C6CBD0" fill-rule="nonzero" opacity="0.5" x="410" y="0" width="90" height="10" rx="5"></rect>
                    <rect id="line-4-path-6" fill="#56B3B4" fill-rule="nonzero" x="380" y="0" width="20" height="10" rx="5"></rect>
                    <rect id="line-4-path-5" fill="#C693C6" fill-rule="nonzero" x="320" y="0" width="50" height="10" rx="5"></rect>
                    <rect id="line-4-path-4" fill="#56B3B4" fill-rule="nonzero" x="230" y="0" width="80" height="10" rx="5"></rect>
                    <rect id="line-4-path-3" fill="#C6CBD0" fill-rule="nonzero" opacity="0.5" x="150" y="0" width="70" height="10" rx="5"></rect>
                    <rect id="line-4-path-2" fill="#C6CBD0" fill-rule="nonzero" opacity="0.5" x="40" y="0" width="100" height="10" rx="5"></rect>
                    <rect id="line-4-path-1" fill="#C6CBD0" fill-rule="nonzero" opacity="0.5" x="0" y="0" width="30" height="10" rx="5"></rect>
                </g>
                <g id="line-3" transform="translate(70.000000, 40.000000)">
                    <rect id="line-3-path-7" fill="#C6CBD0" fill-rule="nonzero" opacity="0.5" x="430" y="0" width="110" height="10" rx="5"></rect>
                    <rect id="line-3-path-6" fill="#C6CBD0" fill-rule="nonzero" opacity="0.5" x="360" y="0" width="60" height="10" rx="5"></rect>
                    <rect id="line-3-path-5" fill="#FBBF47" fill-rule="nonzero" x="240" y="0" width="110" height="10" rx="5"></rect>
                    <rect id="line-3-path-4" fill="#EA5E5E" fill-rule="nonzero" x="190" y="0" width="40" height="10" rx="5"></rect>
                    <rect id="line-3-path-3" fill="#C6CBD0" fill-rule="nonzero" opacity="0.5" x="140" y="0" width="40" height="10" rx="5"></rect>
                    <rect id="line-3-path-2" fill="#C6CBD0" fill-rule="nonzero" opacity="0.5" x="70" y="0" width="60" height="10" rx="5"></rect>
                    <rect id="line-3-path-1" fill="#C6CBD0" fill-rule="nonzero" opacity="0.5" x="-2.84217094e-14" y="0" width="60" height="10" rx="5"></rect>
                </g>
                <g id="line-2" transform="translate(41.000000, 20.000000)">
                    <rect id="line-2-path-7" fill="#C6CBD0" fill-rule="nonzero" opacity="0.5" x="479" y="0" width="130" height="10" rx="5"></rect>
                    <rect id="line-2-path-6" fill="#C6CBD0" fill-rule="nonzero" opacity="0.5" x="439" y="0" width="30" height="10" rx="5"></rect>
                    <rect id="line-2-path-5" fill="#C6CBD0" fill-rule="nonzero" opacity="0.5" x="359" y="0" width="70" height="10" rx="5"></rect>
                    <rect id="line-2-path-4" fill="#56B3B4" fill-rule="nonzero" x="219" y="0" width="130" height="10" rx="5"></rect>
                    <rect id="line-2-path-3" fill="#C6CBD0" fill-rule="nonzero" opacity="0.5" x="139" y="0" width="70" height="10" rx="5"></rect>
                    <rect id="line-2-path-2" fill="#C6CBD0" fill-rule="nonzero" opacity="0.5" x="59" y="0" width="70" height="10" rx="5"></rect>
                    <rect id="line-2-path-1" fill="#C6CBD0" fill-rule="nonzero" opacity="0.5" x="0" y="0" width="50" height="10" rx="5"></rect>
                </g>
                <g id="line-1" transform="translate(105.000000, 0.000000)" fill="#C6CBD0" opacity="0.5">
                    <rect id="line-1-path-6" fill-rule="nonzero" x="455" y="0" width="50" height="10" rx="5"></rect>
                    <rect id="line-1-path-5" fill-rule="nonzero" x="305" y="0" width="140" height="10" rx="5"></rect>
                    <rect id="line-1-path-4" fill-rule="nonzero" x="245" y="0" width="50" height="10" rx="5"></rect>
                    <rect id="line-1-path-3" fill-rule="nonzero" x="95" y="0" width="140" height="10" rx="5"></rect>
                    <rect id="line-1-path-2" fill-rule="nonzero" x="65" y="0" width="20" height="10" rx="5"></rect>
                    <rect id="line-1-path-1" fill-rule="nonzero" x="-1.42108547e-14" y="0" width="55" height="10" rx="5"></rect>
                </g>
            </g>
        </g>
    </g>
</svg>