<?xml version="1.0" encoding="UTF-8"?>
<svg width="1200px" height="500px" viewBox="0 0 1200 500" version="1.1" xmlns="http://www.w3.org/2000/svg" xmlns:xlink="http://www.w3.org/1999/xlink" style="background: #FFFFFF;">
    <!-- Generator: Sketch 42 (36781) - http://www.bohemiancoding.com/sketch -->
    <title>prettier-banner-light</title>
    <desc>Created with Sketch.</desc>
    <defs></defs>
    <g id="Page-1" stroke="none" stroke-width="1" fill="none" fill-rule="evenodd">
        <g id="prettier-banner-light">
            <g id="Text-(Light)" transform="translate(429.000000, 196.000000)" fill="#334650">
                <path d="M12.703125,61.078125 L12.703125,101 L0.056640625,101 L0.056640625,1.46875 L32.3222656,1.46875 C36.7884338,1.55989629 41.0152795,2.26626943 45.0029297,3.58789062 C48.9905798,4.90951182 52.4882662,6.82355518 55.4960938,9.33007812 C58.5039213,11.8366011 60.8850824,14.9355284 62.6396484,18.6269531 C64.3942145,22.3183778 65.2714844,26.5566167 65.2714844,31.3417969 C65.2714844,36.1269771 64.3942145,40.3538228 62.6396484,44.0224609 C60.8850824,47.6910991 58.5039213,50.7786333 55.4960938,53.2851562 C52.4882662,55.7916792 48.9905798,57.7057226 45.0029297,59.0273438 C41.0152795,60.3489649 36.7884338,61.0325519 32.3222656,61.078125 L12.703125,61.078125 Z M12.703125,50.6875 L32.3222656,50.6875 C35.2389469,50.6419269 37.9277221,50.1748091 40.3886719,49.2861328 C42.8496217,48.3974565 44.9915273,47.1328207 46.8144531,45.4921875 C48.6373789,43.8515543 50.0615183,41.8577591 51.0869141,39.5107422 C52.1123098,37.1637252 52.625,34.4863432 52.625,31.4785156 C52.625,28.4706881 52.1123098,25.7591267 51.0869141,23.34375 C50.0615183,20.9283733 48.648772,18.8776126 46.8486328,17.1914062 C45.0484936,15.5051999 42.9065879,14.2063848 40.4228516,13.2949219 C37.9391152,12.383459 35.2389469,11.9049481 32.3222656,11.859375 L12.703125,11.859375 L12.703125,50.6875 Z M122.375,25.6679687 C123.559902,25.6679687 124.790358,25.7021481 126.066406,25.7705078 C127.342454,25.8388675 128.561518,25.9527987 129.723633,26.1123047 C130.885748,26.2718107 131.956701,26.4654937 132.936523,26.6933594 C133.916346,26.9212251 134.725257,27.1718736 135.363281,27.4453125 L133.654297,39.8183594 C131.193347,39.2714816 128.857758,38.8727226 126.647461,38.6220703 C124.437163,38.371418 122.124361,38.2460937 119.708984,38.2460937 C113.784476,38.2460937 108.987974,39.5904813 105.319336,42.2792969 C101.650698,44.9681124 98.9505295,48.7278404 97.21875,53.5585937 L97.21875,101 L84.5039062,101 L84.5039062,27.0351562 L96.5351562,27.0351562 L97.1503906,38.7929687 C100.158218,34.7369589 103.769836,31.5354935 107.985352,29.1884766 C112.200867,26.8414596 116.997369,25.6679687 122.375,25.6679687 Z M181.597656,102.367188 C176.402318,102.367188 171.628602,101.478525 167.276367,99.7011719 C162.924132,97.9238192 159.198583,95.4401201 156.099609,92.25 C153.000636,89.0598799 150.585295,85.2773656 148.853516,80.9023438 C147.121736,76.5273219 146.255859,71.7649997 146.255859,66.6152344 L146.255859,63.7441406 C146.255859,57.7740587 147.212881,52.4306876 149.126953,47.7138672 C151.041025,42.9970467 153.58169,39.0094564 156.749023,35.7509766 C159.916357,32.4924967 163.516581,29.9974045 167.549805,28.265625 C171.583028,26.5338455 175.718729,25.6679688 179.957031,25.6679688 C185.289089,25.6679688 189.948873,26.5908111 193.936523,28.4365234 C197.924174,30.2822358 201.23957,32.8342936 203.882812,36.0927734 C206.526055,39.3512533 208.497064,43.1907331 209.795898,47.6113281 C211.094733,52.0319231 211.744141,56.8170315 211.744141,61.9667969 L211.744141,67.640625 L158.902344,67.640625 C159.039063,71.0130377 159.688471,74.1803237 160.850586,77.1425781 C162.012701,80.1048325 163.607737,82.6910697 165.635742,84.9013672 C167.663747,87.1116647 170.090481,88.8548113 172.916016,90.1308594 C175.741551,91.4069074 178.863264,92.0449219 182.28125,92.0449219 C186.792991,92.0449219 190.803368,91.1334727 194.3125,89.3105469 C197.821632,87.4876211 200.73827,85.0722807 203.0625,82.0644531 L210.787109,88.0800781 C209.556634,89.9485771 208.018564,91.7372961 206.172852,93.4462891 C204.327139,95.155282 202.196627,96.6705663 199.78125,97.9921875 C197.365873,99.3138087 194.631526,100.373368 191.578125,101.170898 C188.524724,101.968428 185.197935,102.367188 181.597656,102.367188 Z M179.957031,36.0585938 C177.404935,36.0585938 174.989595,36.5257115 172.710938,37.4599609 C170.43228,38.3942104 168.38152,39.7613842 166.558594,41.5615234 C164.735668,43.3616626 163.197597,45.571927 161.944336,48.1923828 C160.691074,50.8128386 159.813805,53.8320142 159.3125,57.25 L199.097656,57.25 L199.097656,56.2929688 C198.960937,53.8320189 198.493819,51.3938923 197.696289,48.9785156 C196.898759,46.563139 195.725268,44.3984471 194.175781,42.484375 C192.626294,40.5703029 190.678072,39.0208393 188.331055,37.8359375 C185.984038,36.6510357 183.192725,36.0585938 179.957031,36.0585938 Z M253.876953,9.125 L253.876953,27.0351562 L282.041016,27.0351562 L282.041016,36.8105469 L253.876953,36.8105469 L253.876953,77.0058594 C253.876953,79.8769675 254.241533,82.2467354 254.970703,84.1152344 C255.699873,85.9837333 256.702468,87.4762314 257.978516,88.5927734 C259.254564,89.7093155 260.724276,90.4954404 262.387695,90.9511719 C264.051115,91.4069033 265.817048,91.6347656 267.685547,91.6347656 C269.052741,91.6347656 270.465487,91.5550138 271.923828,91.3955078 C273.382169,91.2360018 274.806308,91.0423188 276.196289,90.8144531 C277.58627,90.5865874 278.885085,90.347332 280.092773,90.0966797 C281.300462,89.8460274 282.291663,89.6295582 283.066406,89.4472656 L284.84375,98.4023437 C283.795568,99.0403678 282.519539,99.5986304 281.015625,100.077148 C279.511711,100.555666 277.871103,100.965819 276.09375,101.307617 C274.316397,101.649416 272.436533,101.911457 270.454102,102.09375 C268.47167,102.276043 266.500661,102.367187 264.541016,102.367187 C261.259749,102.367187 258.195001,101.90007 255.34668,100.96582 C252.498358,100.031571 250.026052,98.5504659 247.929688,96.5224609 C245.833323,94.494456 244.181321,91.8740395 242.973633,88.6611328 C241.765944,85.4482261 241.162109,81.5631738 241.162109,77.0058594 L241.162109,36.8105469 L221.748047,36.8105469 L221.748047,27.0351562 L241.162109,27.0351562 L241.162109,9.125 L253.876953,9.125 Z M328.890625,9.125 L328.890625,27.0351562 L357.054688,27.0351562 L357.054688,36.8105469 L328.890625,36.8105469 L328.890625,77.0058594 C328.890625,79.8769675 329.255205,82.2467354 329.984375,84.1152344 C330.713545,85.9837333 331.716139,87.4762314 332.992188,88.5927734 C334.268236,89.7093155 335.737947,90.4954404 337.401367,90.9511719 C339.064787,91.4069033 340.83072,91.6347656 342.699219,91.6347656 C344.066413,91.6347656 345.479159,91.5550138 346.9375,91.3955078 C348.395841,91.2360018 349.81998,91.0423188 351.209961,90.8144531 C352.599942,90.5865874 353.898757,90.347332 355.106445,90.0966797 C356.314134,89.8460274 357.305335,89.6295582 358.080078,89.4472656 L359.857422,98.4023437 C358.80924,99.0403678 357.533211,99.5986304 356.029297,100.077148 C354.525383,100.555666 352.884775,100.965819 351.107422,101.307617 C349.330069,101.649416 347.450205,101.911457 345.467773,102.09375 C343.485342,102.276043 341.514333,102.367187 339.554688,102.367187 C336.273421,102.367187 333.208673,101.90007 330.360352,100.96582 C327.51203,100.031571 325.039724,98.5504659 322.943359,96.5224609 C320.846995,94.494456 319.194993,91.8740395 317.987305,88.6611328 C316.779616,85.4482261 316.175781,81.5631738 316.175781,77.0058594 L316.175781,36.8105469 L296.761719,36.8105469 L296.761719,27.0351562 L316.175781,27.0351562 L316.175781,9.125 L328.890625,9.125 Z M375.945312,27.0351562 L413.748047,27.0351562 L413.748047,90.0625 L437.878906,90.0625 L437.878906,101 L375.945312,101 L375.945312,90.0625 L401.101562,90.0625 L401.101562,38.0410156 L375.945312,38.0410156 L375.945312,27.0351562 Z M399.460938,7.62109375 C399.460938,5.5247291 400.087559,3.75879624 401.34082,2.32324219 C402.594082,0.887688135 404.496732,0.169921875 407.048828,0.169921875 C409.555351,0.169921875 411.446608,0.887688135 412.722656,2.32324219 C413.998704,3.75879624 414.636719,5.5247291 414.636719,7.62109375 C414.636719,9.67188525 413.998704,11.3808525 412.722656,12.7480469 C411.446608,14.1152412 409.555351,14.7988281 407.048828,14.7988281 C404.496732,14.7988281 402.594082,14.1152412 401.34082,12.7480469 C400.087559,11.3808525 399.460938,9.67188525 399.460938,7.62109375 Z M481.652344,102.367188 C476.457005,102.367188 471.68329,101.478525 467.331055,99.7011719 C462.978819,97.9238192 459.253271,95.4401201 456.154297,92.25 C453.055323,89.0598799 450.639983,85.2773656 448.908203,80.9023438 C447.176424,76.5273219 446.310547,71.7649997 446.310547,66.6152344 L446.310547,63.7441406 C446.310547,57.7740587 447.267569,52.4306876 449.181641,47.7138672 C451.095713,42.9970467 453.636377,39.0094564 456.803711,35.7509766 C459.971044,32.4924967 463.571269,29.9974045 467.604492,28.265625 C471.637715,26.5338455 475.773416,25.6679688 480.011719,25.6679688 C485.343777,25.6679688 490.003561,26.5908111 493.991211,28.4365234 C497.978861,30.2822358 501.294258,32.8342936 503.9375,36.0927734 C506.580742,39.3512533 508.551751,43.1907331 509.850586,47.6113281 C511.149421,52.0319231 511.798828,56.8170315 511.798828,61.9667969 L511.798828,67.640625 L458.957031,67.640625 C459.093751,71.0130377 459.743158,74.1803237 460.905273,77.1425781 C462.067389,80.1048325 463.662425,82.6910697 465.69043,84.9013672 C467.718435,87.1116647 470.145168,88.8548113 472.970703,90.1308594 C475.796238,91.4069074 478.917952,92.0449219 482.335938,92.0449219 C486.847679,92.0449219 490.858055,91.1334727 494.367188,89.3105469 C497.87632,87.4876211 500.792957,85.0722807 503.117188,82.0644531 L510.841797,88.0800781 C509.611322,89.9485771 508.073251,91.7372961 506.227539,93.4462891 C504.381827,95.155282 502.251314,96.6705663 499.835938,97.9921875 C497.420561,99.3138087 494.686213,100.373368 491.632812,101.170898 C488.579412,101.968428 485.252622,102.367188 481.652344,102.367188 Z M480.011719,36.0585938 C477.459623,36.0585938 475.044282,36.5257115 472.765625,37.4599609 C470.486968,38.3942104 468.436207,39.7613842 466.613281,41.5615234 C464.790355,43.3616626 463.252285,45.571927 461.999023,48.1923828 C460.745762,50.8128386 459.868492,53.8320142 459.367188,57.25 L499.152344,57.25 L499.152344,56.2929688 C499.015624,53.8320189 498.548507,51.3938923 497.750977,48.9785156 C496.953447,46.563139 495.779956,44.3984471 494.230469,42.484375 C492.680982,40.5703029 490.732759,39.0208393 488.385742,37.8359375 C486.038725,36.6510357 483.247412,36.0585938 480.011719,36.0585938 Z M572.457031,25.6679687 C573.641933,25.6679687 574.872389,25.7021481 576.148438,25.7705078 C577.424486,25.8388675 578.643549,25.9527987 579.805664,26.1123047 C580.967779,26.2718107 582.038732,26.4654937 583.018555,26.6933594 C583.998377,26.9212251 584.807288,27.1718736 585.445312,27.4453125 L583.736328,39.8183594 C581.275378,39.2714816 578.93979,38.8727226 576.729492,38.6220703 C574.519195,38.371418 572.206392,38.2460937 569.791016,38.2460937 C563.866507,38.2460937 559.070005,39.5904813 555.401367,42.2792969 C551.732729,44.9681124 549.032561,48.7278404 547.300781,53.5585937 L547.300781,101 L534.585938,101 L534.585938,27.0351562 L546.617188,27.0351562 L547.232422,38.7929687 C550.240249,34.7369589 553.851867,31.5354935 558.067383,29.1884766 C562.282899,26.8414596 567.0794,25.6679687 572.457031,25.6679687 Z" id="Prettier"></path>
            </g>
            <g id="Icon-(Light)" transform="translate(145.000000, 145.000000)">
                <g id="Group">
                    <rect id="Rectangle" fill="#56B3B4" x="150" y="40" width="20" height="10" rx="5"></rect>
                    <rect id="Rectangle" fill="#EA5E5E" x="0" y="200" width="70" height="10" rx="5"></rect>
                    <rect id="Rectangle" fill="#C693C6" x="120" y="120" width="40" height="10" rx="5"></rect>
                    <rect id="Rectangle" fill="#EA5E5E" x="60" y="120" width="50" height="10" rx="5"></rect>
                    <rect id="Rectangle" fill="#56B3B4" x="0" y="120" width="50" height="10" rx="5"></rect>
                    <rect id="Rectangle" fill="#C693C6" x="0" y="160" width="70" height="10" rx="5"></rect>
                    <rect id="Rectangle" fill="#C693C6" x="0" y="80" width="50" height="10" rx="5"></rect>
                    <rect id="Rectangle" fill="#FBBF47" x="50" y="20" width="110" height="10" rx="5"></rect>
                    <rect id="Rectangle" fill="#EA5E5E" x="0" y="20" width="40" height="10" rx="5"></rect>
                    <rect id="Rectangle" fill="#FBBF47" x="40" y="180" width="30" height="10" rx="5"></rect>
                    <rect id="Rectangle" fill="#56B3B4" x="0" y="180" width="30" height="10" rx="5"></rect>
                    <rect id="Rectangle" fill="#56B3B4" x="80" y="100" width="90" height="10" rx="5"></rect>
                    <rect id="Rectangle" fill="#FBBF47" x="30" y="100" width="40" height="10" rx="5"></rect>
                    <rect id="Rectangle" fill="#EA5E5E" x="0" y="100" width="20" height="10" rx="5"></rect>
                    <rect id="Rectangle" fill="#C693C6" x="90" y="40" width="50" height="10" rx="5"></rect>
                    <rect id="Rectangle" fill="#56B3B4" x="0" y="40" width="80" height="10" rx="5"></rect>
                    <rect id="Rectangle" fill="#FBBF47" x="30" y="140" width="100" height="10" rx="5"></rect>
                    <rect id="Rectangle" fill="#C693C6" x="0" y="140" width="20" height="10" rx="5"></rect>
                    <rect id="Rectangle" fill="#EA5E5E" x="120" y="60" width="60" height="10" rx="5"></rect>
                    <rect id="Rectangle" fill="#FBBF47" x="120" y="80" width="60" height="10" rx="5"></rect>
                    <rect id="Rectangle" fill="#FBBF47" x="0" y="60" width="50" height="10" rx="5"></rect>
                    <rect id="Rectangle" fill="#56B3B4" x="0" y="0" width="130" height="10" rx="5"></rect>
                    <rect id="Rectangle" fill="#C6CCD0" opacity="0.5" x="140" y="0" width="70" height="10" rx="5"></rect>
                    <rect id="Rectangle" fill="#C6CCD0" opacity="0.5" x="140" y="140" width="70" height="10" rx="5"></rect>
                    <rect id="Rectangle" fill="#C6CCD0" opacity="0.5" x="170" y="120" width="40" height="10" rx="5"></rect>
                    <rect id="Rectangle" fill="#C6CCD0" opacity="0.5" x="170" y="20" width="40" height="10" rx="5"></rect>
                    <rect id="Rectangle" fill="#C6CCD0" opacity="0.5" x="180" y="100" width="30" height="10" rx="5"></rect>
                    <rect id="Rectangle" fill="#C6CCD0" opacity="0.5" x="180" y="40" width="30" height="10" rx="5"></rect>
                    <rect id="Rectangle" fill="#C6CCD0" opacity="0.5" x="190" y="60" width="20" height="10" rx="5"></rect>
                    <rect id="Rectangle" fill="#C6CCD0" opacity="0.5" x="190" y="80" width="20" height="10" rx="5"></rect>
                    <rect id="Rectangle" fill="#C6CCD0" opacity="0.5" x="80" y="160" width="130" height="10" rx="5"></rect>
                    <rect id="Rectangle" fill="#C6CCD0" opacity="0.5" x="80" y="180" width="130" height="10" rx="5"></rect>
                    <rect id="Rectangle" fill="#C6CCD0" opacity="0.5" x="80" y="200" width="130" height="10" rx="5"></rect>
                    <rect id="Rectangle" fill="#C6CCD0" opacity="0.5" x="60" y="60" width="50" height="10" rx="5"></rect>
                    <rect id="Rectangle" fill="#C6CCD0" opacity="0.5" x="60" y="80" width="50" height="10" rx="5"></rect>
                </g>
            </g>
        </g>
    </g>
</svg>