<?xml version="1.0" encoding="UTF-8"?>
<svg width="1200px" height="500px" viewBox="0 0 1200 500" version="1.1" xmlns="http://www.w3.org/2000/svg" xmlns:xlink="http://www.w3.org/1999/xlink" style="background: #FFFFFF;">
    <!-- Generator: sketchtool 46.2 (44496) - http://www.bohemiancoding.com/sketch -->
    <title>prettier-banner-light</title>
    <desc>Created with sketchtool.</desc>
    <defs></defs>
    <g id="key" stroke="none" stroke-width="1" fill="none" fill-rule="evenodd">
        <g id="prettier-banner-light">
            <g id="Text-(Light)" transform="translate(429.000000, 195.000000)" fill="#334650">
                <path d="M13.5649555,65.7023085 L13.5649555,108.672208 L0.0475933305,108.672208 L0.0475933305,1.54177336 L34.5351335,1.54177336 C39.3088564,1.63987864 43.8267764,2.40018319 48.089029,3.82270981 C52.3512816,5.24523644 56.08983,7.3054165 59.3047862,10.0033118 C62.5197425,12.7012071 65.064878,16.0367368 66.9402691,20.0100008 C68.8156603,23.9832648 69.7533418,28.5450921 69.7533418,33.6956195 C69.7533418,38.8461469 68.8156603,43.3957113 66.9402691,47.3444489 C65.064878,51.2931866 62.5197425,54.6164533 59.3047862,57.3143486 C56.08983,60.0122439 52.3512816,62.072424 48.089029,63.4949506 C43.8267764,64.9174772 39.3088564,65.6532558 34.5351335,65.7023085 L13.5649555,65.7023085 Z M13.5649555,54.518362 L34.5351335,54.518362 C37.6526668,54.4693093 40.5265997,53.9665273 43.1570185,53.0100008 C45.7874372,52.0534743 48.0768414,50.6922839 50.0252998,48.9263887 C51.9737581,47.1604936 53.4959684,45.0144727 54.5919762,42.4882617 C55.687984,39.9620506 56.2359797,37.0802511 56.2359797,33.8427767 C56.2359797,30.6053023 55.687984,27.6867139 54.5919762,25.0869239 C53.4959684,22.4871338 51.9859358,20.279798 50.0618332,18.4648503 C48.1377306,16.6499025 45.8483264,15.2519232 43.1935519,14.2708703 C40.5387774,13.2898175 37.6526668,12.7747725 34.5351335,12.7257198 L13.5649555,12.7257198 L13.5649555,54.518362 Z M130.78919,27.5885961 C132.055688,27.5885961 133.370877,27.625385 134.734798,27.698964 C136.098719,27.772543 137.401731,27.8951727 138.643873,28.066857 C139.886015,28.2385412 141.030718,28.4470118 142.078014,28.692275 C143.12531,28.9375382 143.989926,29.2073237 144.671886,29.5016396 L142.845216,42.8193653 C140.214797,42.2307336 137.718372,41.8015294 135.355866,41.5317399 C132.993361,41.2619504 130.521291,41.1270576 127.939584,41.1270576 C121.607094,41.1270576 116.48029,42.5740889 112.559018,45.4681948 C108.637745,48.3623007 105.751635,52.4090829 103.900599,57.608663 L103.900599,108.672208 L90.3101703,108.672208 L90.3101703,29.060168 L103.169931,29.060168 L103.827532,41.7156864 C107.042489,37.3500013 110.902814,33.9041048 115.408624,31.3778938 C119.914434,28.8516827 125.041238,27.5885961 130.78919,27.5885961 Z M194.090109,110.14378 C188.537003,110.14378 183.434554,109.187268 178.78261,107.274215 C174.130666,105.361162 170.148564,102.687833 166.836185,99.2541479 C163.523806,95.820463 160.942137,91.7491548 159.091102,87.0401011 C157.240066,82.3310475 156.314562,77.2051233 156.314562,71.6621747 L156.314562,68.5718737 C156.314562,62.1459776 157.337488,56.3946416 159.383369,51.3176931 C161.42925,46.2407446 164.144873,41.9487028 167.53032,38.4414389 C170.915766,34.934175 174.763913,32.2485831 179.074878,30.3845827 C183.385842,28.5205823 187.80634,27.5885961 192.336506,27.5885961 C198.035746,27.5885961 203.016418,28.5818972 207.278671,30.5685292 C211.540924,32.5551612 215.084629,35.302068 217.909894,38.8093319 C220.735158,42.3165958 222.841897,46.4492189 224.230174,51.2073252 C225.61845,55.9654315 226.312578,61.1158817 226.312578,66.6588302 L226.312578,72.7658536 L169.831924,72.7658536 C169.978059,76.3957491 170.672187,79.8048566 171.914329,82.9932784 C173.156471,86.1817001 174.861347,88.9653958 177.029006,91.3444489 C179.196666,93.7235021 181.790513,95.5997375 184.810623,96.9732115 C187.830733,98.3466855 191.167418,99.0334122 194.820778,99.0334122 C199.643212,99.0334122 203.929756,98.052374 207.680538,96.0902683 C211.431321,94.1281627 214.548807,91.5284116 217.033092,88.2909372 L225.289643,94.7658536 C223.974433,96.777012 222.330446,98.7022993 220.357632,100.541773 C218.384818,102.381247 216.107592,104.012223 213.525884,105.43475 C210.944177,106.857277 208.021533,107.997733 204.757866,108.856155 C201.494198,109.714576 197.938315,110.14378 194.090109,110.14378 Z M192.336506,38.7725426 C189.608664,38.7725426 187.026996,39.2753246 184.591423,40.2809038 C182.15585,41.286483 179.963867,42.7580401 178.015409,44.6956195 C176.06695,46.6331989 174.422963,49.0122163 173.083398,51.8327433 C171.743833,54.6532702 170.806151,57.902959 170.270325,61.5819071 L212.795216,61.5819071 L212.795216,60.5518068 C212.649082,57.9029641 212.149797,55.2786871 211.297346,52.6788971 C210.444896,50.0791071 209.190594,47.7491415 207.534405,45.6889305 C205.878215,43.6287196 203.795832,41.9609548 201.287191,40.6855861 C198.778551,39.4102174 195.795019,38.7725426 192.336506,38.7725426 Z M271.346792,9.78257603 L271.346792,29.060168 L301.450323,29.060168 L301.450323,39.5819071 L271.346792,39.5819071 L271.346792,82.8461212 C271.346792,85.9364376 271.736478,88.4871368 272.515861,90.4982951 C273.295245,92.5094534 274.366881,94.1159034 275.730801,95.3176931 C277.094722,96.5194828 278.665643,97.3656282 280.443612,97.8561546 C282.22158,98.3466811 284.10912,98.5919406 286.10629,98.5919406 C287.567634,98.5919406 289.077667,98.5060997 290.636433,98.3344155 C292.1952,98.1627313 293.71741,97.9542607 295.20311,97.7089974 C296.688809,97.4637342 298.077065,97.2062117 299.367918,96.9364222 C300.658772,96.6666327 301.71823,96.4336361 302.546325,96.2374255 L304.446063,105.876222 C303.325699,106.562959 301.961799,107.163844 300.354321,107.678897 C298.746842,108.19395 296.993256,108.635417 295.093509,109.003312 C293.193762,109.371207 291.184445,109.653255 289.065497,109.849466 C286.946548,110.045676 284.839809,110.14378 282.745216,110.14378 C279.237991,110.14378 275.962195,109.640998 272.917729,108.635419 C269.873263,107.62984 267.230706,106.035653 264.989979,103.85281 C262.749252,101.669968 260.983488,98.849483 259.692634,95.3912717 C258.40178,91.9330604 257.756363,87.7513854 257.756363,82.8461212 L257.756363,39.5819071 L237.005386,39.5819071 L237.005386,29.060168 L257.756363,29.060168 L257.756363,9.78257603 L271.346792,9.78257603 Z M351.526148,9.78257603 L351.526148,29.060168 L381.629678,29.060168 L381.629678,39.5819071 L351.526148,39.5819071 L351.526148,82.8461212 C351.526148,85.9364376 351.915833,88.4871368 352.695217,90.4982951 C353.4746,92.5094534 354.546236,94.1159034 355.910157,95.3176931 C357.274078,96.5194828 358.844999,97.3656282 360.622967,97.8561546 C362.400935,98.3466811 364.288476,98.5919406 366.285646,98.5919406 C367.74699,98.5919406 369.257022,98.5060997 370.815789,98.3344155 C372.374555,98.1627313 373.896766,97.9542607 375.382465,97.7089974 C376.868165,97.4637342 378.25642,97.2062117 379.547274,96.9364222 C380.838128,96.6666327 381.897586,96.4336361 382.725681,96.2374255 L384.625418,105.876222 C383.505055,106.562959 382.141154,107.163844 380.533676,107.678897 C378.926198,108.19395 377.172612,108.635417 375.272865,109.003312 C373.373118,109.371207 371.363801,109.653255 369.244852,109.849466 C367.125904,110.045676 365.019165,110.14378 362.924572,110.14378 C359.417347,110.14378 356.14155,109.640998 353.097084,108.635419 C350.052618,107.62984 347.410061,106.035653 345.169334,103.85281 C342.928607,101.669968 341.162843,98.849483 339.87199,95.3912717 C338.581136,91.9330604 337.935719,87.7513854 337.935719,82.8461212 L337.935719,39.5819071 L317.184741,39.5819071 L317.184741,29.060168 L337.935719,29.060168 L337.935719,9.78257603 L351.526148,9.78257603 Z M401.821173,29.060168 L442.227126,29.060168 L442.227126,96.8996329 L468.019714,96.8996329 L468.019714,108.672208 L401.821173,108.672208 L401.821173,96.8996329 L428.709763,96.8996329 L428.709763,40.9063219 L401.821173,40.9063219 L401.821173,29.060168 Z M426.95616,8.16384694 C426.95616,5.9074254 427.625932,4.00666403 428.965497,2.4615058 C430.305062,0.916347573 432.338735,0.143780048 435.066577,0.143780048 C437.745707,0.143780048 439.767202,0.916347573 441.131123,2.4615058 C442.495044,4.00666403 443.176994,5.9074254 443.176994,8.16384694 C443.176994,10.3712158 442.495044,12.2106623 441.131123,13.6822416 C439.767202,15.1538209 437.745707,15.8895994 435.066577,15.8895994 C432.338735,15.8895994 430.305062,15.1538209 428.965497,13.6822416 C427.625932,12.2106623 426.95616,10.3712158 426.95616,8.16384694 Z M514.807532,110.14378 C509.254425,110.14378 504.151977,109.187268 499.500032,107.274215 C494.848088,105.361162 490.865986,102.687833 487.553607,99.2541479 C484.241228,95.820463 481.659559,91.7491548 479.808524,87.0401011 C477.957488,82.3310475 477.031985,77.2051233 477.031985,71.6621747 L477.031985,68.5718737 C477.031985,62.1459776 478.05491,56.3946416 480.100791,51.3176931 C482.146672,46.2407446 484.862295,41.9487028 488.247742,38.4414389 C491.633188,34.934175 495.481336,32.2485831 499.7923,30.3845827 C504.103264,28.5205823 508.523762,27.5885961 513.053928,27.5885961 C518.753169,27.5885961 523.73384,28.5818972 527.996093,30.5685292 C532.258346,32.5551612 535.802051,35.302068 538.627316,38.8093319 C541.45258,42.3165958 543.559319,46.4492189 544.947596,51.2073252 C546.335872,55.9654315 547.03,61.1158817 547.03,66.6588302 L547.03,72.7658536 L490.549347,72.7658536 C490.695481,76.3957491 491.389609,79.8048566 492.631751,82.9932784 C493.873893,86.1817001 495.578769,88.9653958 497.746429,91.3444489 C499.914089,93.7235021 502.507935,95.5997375 505.528045,96.9732115 C508.548156,98.3466855 511.88484,99.0334122 515.5382,99.0334122 C520.360634,99.0334122 524.647178,98.052374 528.397961,96.0902683 C532.148743,94.1281627 535.266229,91.5284116 537.750514,88.2909372 L546.007065,94.7658536 C544.691855,96.777012 543.047868,98.7022993 541.075054,100.541773 C539.10224,102.381247 536.825014,104.012223 534.243306,105.43475 C531.661599,106.857277 528.738955,107.997733 525.475288,108.856155 C522.21162,109.714576 518.655737,110.14378 514.807532,110.14378 Z M513.053928,38.7725426 C510.326086,38.7725426 507.744418,39.2753246 505.308845,40.2809038 C502.873272,41.286483 500.681289,42.7580401 498.732831,44.6956195 C496.784372,46.6331989 495.140385,49.0122163 493.80082,51.8327433 C492.461255,54.6532702 491.523574,57.902959 490.987748,61.5819071 L533.512638,61.5819071 L533.512638,60.5518068 C533.366504,57.9029641 532.867219,55.2786871 532.014768,52.6788971 C531.162318,50.0791071 529.908017,47.7491415 528.251827,45.6889305 C526.595637,43.6287196 524.513254,41.9609548 522.004614,40.6855861 C519.495974,39.4102174 516.512441,38.7725426 513.053928,38.7725426 Z M611.865323,27.5885961 C613.131821,27.5885961 614.447011,27.625385 615.810932,27.698964 C617.174852,27.772543 618.477864,27.8951727 619.720007,28.066857 C620.962149,28.2385412 622.106851,28.4470118 623.154147,28.692275 C624.201444,28.9375382 625.066059,29.2073237 625.748019,29.5016396 L623.921349,42.8193653 C621.29093,42.2307336 618.794505,41.8015294 616.432,41.5317399 C614.069494,41.2619504 611.597424,41.1270576 609.015717,41.1270576 C602.683227,41.1270576 597.556423,42.5740889 593.635151,45.4681948 C589.713879,48.3623007 586.827768,52.4090829 584.976733,57.608663 L584.976733,108.672208 L571.386304,108.672208 L571.386304,29.060168 L584.246064,29.060168 L584.903666,41.7156864 C588.118622,37.3500013 591.978947,33.9041048 596.484757,31.3778938 C600.990567,28.8516827 606.117371,27.5885961 611.865323,27.5885961 Z" id="Prettier"></path>
            </g>
            <g id="Icon-(Light)" transform="translate(145.000000, 145.000000)">
                <g id="line-11" transform="translate(0.000000, 200.000000)">
                    <rect id="line-11-dash-3" fill="#CFD4D7" opacity="0.5" x="150" y="0" width="60" height="10" rx="5"></rect>
                    <rect id="line-11-dash-2" fill="#CFD4D7" opacity="0.5" x="70" y="0" width="70" height="10" rx="5"></rect>
                    <rect id="line-11-dash-1" fill="#EA5E5E" x="0" y="0" width="60" height="10" rx="5"></rect>
                </g>
                <g id="line-10" transform="translate(0.000000, 180.000000)">
                    <rect id="line-10-dash-5" fill="#CFD4D7" opacity="0.5" x="160" y="0" width="50" height="10" rx="5"></rect>
                    <rect id="line-10-dash-4" fill="#CFD4D7" opacity="0.5" x="130" y="0" width="20" height="10" rx="5"></rect>
                    <rect id="line-10-dash-3" fill="#CFD4D7" opacity="0.5" x="70" y="0" width="50" height="10" rx="5"></rect>
                    <rect id="line-10-dash-2" fill="#F7B93E" x="40" y="0" width="20" height="10" rx="5"></rect>
                    <rect id="line-10-dash-1" fill="#56B3B4" x="0" y="0" width="30" height="10" rx="5"></rect>
                </g>
                <g id="line-9" transform="translate(0.000000, 160.000000)">
                    <rect id="line-9-dash-3" fill="#CFD4D7" opacity="0.5" x="110" y="0" width="100" height="10" rx="5"></rect>
                    <rect id="line-9-dash-2" fill="#CFD4D7" opacity="0.5" x="70" y="0" width="30" height="10" rx="5"></rect>
                    <rect id="line-9-dash-1" fill="#BF85BF" x="0" y="0" width="60" height="10" rx="5"></rect>
                </g>
                <g id="line-8" transform="translate(0.000000, 140.000000)">
                    <rect id="line-8-dash-4" fill="#CFD4D7" opacity="0.5" x="180" y="0" width="30" height="10" rx="5"></rect>
                    <rect id="line-8-dash-3" fill="#CFD4D7" opacity="0.5" x="140" y="0" width="30" height="10" rx="5"></rect>
                    <rect id="line-8-dash-2" fill="#F7B93E" x="30" y="0" width="100" height="10" rx="5"></rect>
                    <rect id="line-8-dash-1" fill="#BF85BF" x="0" y="0" width="20" height="10" rx="5"></rect>
                </g>
                <g id="line-7" transform="translate(0.000000, 120.000000)">
                    <rect id="line-7-dash-4" fill="#CFD4D7" opacity="0.5" x="170" y="0" width="40" height="10" rx="5"></rect>
                    <rect id="line-7-dash-3" fill="#BF85BF" x="120" y="0" width="40" height="10" rx="5"></rect>
                    <rect id="line-7-dash-2" fill="#EA5E5E" x="60" y="0" width="50" height="10" rx="5"></rect>
                    <rect id="line-7-dash-1" fill="#56B3B4" x="0" y="0" width="50" height="10" rx="5"></rect>
                </g>
                <g id="line-6" transform="translate(0.000000, 100.000000)">
                    <rect id="line-6-dash-4" fill="#CFD4D7" opacity="0.5" x="180" y="0" width="30" height="10" rx="5"></rect>
                    <rect id="line-6-dash-3" fill="#56B3B4" x="80" y="0" width="90" height="10" rx="5"></rect>
                    <rect id="line-6-dash-2" fill="#F7B93E" x="30" y="0" width="40" height="10" rx="5"></rect>
                    <rect id="line-6-dash-1" fill="#EA5E5E" x="0" y="0" width="20" height="10" rx="5"></rect>
                </g>
                <g id="line-5" transform="translate(0.000000, 80.000000)">
                    <rect id="line-5-dash-4" fill="#CFD4D7" opacity="0.5" x="190" y="0" width="20" height="10" rx="5"></rect>
                    <rect id="line-5-dash-3" fill="#F7B93E" x="120" y="0" width="60" height="10" rx="5"></rect>
                    <rect id="line-5-dash-2" fill="#CFD4D7" opacity="0.5" x="70" y="0" width="40" height="10" rx="5"></rect>
                    <rect id="line-5-dash-1" fill="#BF85BF" x="0" y="0" width="60" height="10" rx="5"></rect>
                </g>
                <g id="line-4" transform="translate(0.000000, 60.000000)">
                    <rect id="line-4-dash-5" fill="#CFD4D7" opacity="0.5" x="190" y="0" width="20" height="10" rx="5"></rect>
                    <rect id="line-4-dash-4" fill="#EA5E5E" x="120" y="0" width="60" height="10" rx="5"></rect>
                    <rect id="line-4-dash-3" fill="#CFD4D7" opacity="0.5" x="70" y="0" width="40" height="10" rx="5"></rect>
                    <rect id="line-4-dash-2" fill="#56B3B4" x="40" y="0" width="20" height="10" rx="5"></rect>
                    <rect id="line-4-dash-1" fill="#F7B93E" x="0" y="0" width="30" height="10" rx="5"></rect>
                </g>
                <g id="line-3" transform="translate(0.000000, 40.000000)">
                    <rect id="line-3-dash-4" fill="#CFD4D7" opacity="0.5" x="180" y="0" width="30" height="10" rx="5"></rect>
                    <rect id="line-3-dash-3" fill="#56B3B4" x="150" y="0" width="20" height="10" rx="5"></rect>
                    <rect id="line-3-dash-2" fill="#BF85BF" x="90" y="0" width="50" height="10" rx="5"></rect>
                    <rect id="line-3-dash-1" fill="#56B3B4" x="0" y="0" width="80" height="10" rx="5"></rect>
                </g>
                <g id="line-2" transform="translate(0.000000, 20.000000)">
                    <rect id="line-2-dash-3" fill="#CFD4D7" opacity="0.5" x="170" y="0" width="40" height="10" rx="5"></rect>
                    <rect id="line-2-dash-2" fill="#F7B93E" x="50" y="0" width="110" height="10" rx="5"></rect>
                    <rect id="line-2-dash-1" fill="#EA5E5E" x="0" y="0" width="40" height="10" rx="5"></rect>
                </g>
                <g id="line-1">
                    <rect id="line-1-dash-2" fill="#CFD4D7" opacity="0.5" x="140" y="0" width="70" height="10" rx="5"></rect>
                    <rect id="line-1-dash-1" fill="#56B3B4" x="0" y="0" width="130" height="10" rx="5"></rect>
                </g>
            </g>
        </g>
    </g>
</svg>